# xmcd CD database file
#
# Track frame offsets:
#	150
#	23570
#	50132
#	76382
#	104232
#	129169
#	152254
#	180244
#	193986
#	212928
#	231258
#	250053
#	291948
#	314185
#
# Disc length: 4454 seconds
#
# Revision: 0
# Processed by: cddbd v1.5.2PL0 Copyright (c) Steve Scherf et al.
# Submitted via: CDex 1.51
#
DISCID=c911640e
DTITLE=Olga Tañon - Olga Viva, Viva Olga
DYEAR=2002
DGENRE=Merengue
TTITLE0=Es Mentiroso
TTITLE1=Presencie Tu Amor
TTITLE2=Frio De Tu Adios
TTITLE3=Mi Eterno Amor Secreto
TTITLE4=Papel De Malo
TTITLE5=Muchacho Malo 
TTITLE6=Medley Boogaloo
TTITLE7=Me Subes, Me Bajas, Me subes
TTITLE8=Contigo O Sin Ti
TTITLE9=Ah-Ah-O-No
TTITLE10=Basta Ya
TTITLE11=Tu Amor (Mix)
TTITLE12=Ya Me Cance
TTITLE13=Viva La Musica
EXTD=YEAR: 2002
EXTT0=
EXTT1=
EXTT2=
EXTT3=
EXTT4=
EXTT5=
EXTT6=
EXTT7=
EXTT8=
EXTT9=
EXTT10=
EXTT11=
EXTT12=
EXTT13=
PLAYORDER=
